<mxfile host="app.diagrams.net" modified="2021-12-28T09:21:11.041Z" agent="5.0 (Windows NT 10.0; Win64; x64) AppleWebKit/537.36 (KHTML, like Gecko) Chrome/96.0.4664.110 Safari/537.36" etag="3NGUKHmoXxF4FLBVzi3d" version="16.1.0" type="github">
  <diagram id="C5RBs43oDa-KdzZeNtuy" name="Page-1">
    <mxGraphModel dx="751" dy="1858" grid="1" gridSize="10" guides="1" tooltips="1" connect="1" arrows="1" fold="1" page="1" pageScale="1" pageWidth="827" pageHeight="1169" math="0" shadow="0">
      <root>
        <mxCell id="WIyWlLk6GJQsqaUBKTNV-0" />
        <mxCell id="WIyWlLk6GJQsqaUBKTNV-1" parent="WIyWlLk6GJQsqaUBKTNV-0" />
        <mxCell id="zkfFHV4jXpPFQw0GAbJ--0" value="GameActivity" style="swimlane;fontStyle=2;align=center;verticalAlign=top;childLayout=stackLayout;horizontal=1;startSize=26;horizontalStack=0;resizeParent=1;resizeLast=0;collapsible=1;marginBottom=0;rounded=0;shadow=0;strokeWidth=1;" parent="WIyWlLk6GJQsqaUBKTNV-1" vertex="1">
          <mxGeometry x="30" y="70" width="370" height="1282" as="geometry">
            <mxRectangle x="230" y="140" width="160" height="26" as="alternateBounds" />
          </mxGeometry>
        </mxCell>
        <mxCell id="zkfFHV4jXpPFQw0GAbJ--2" value="FrameLayout frame&#xa;" style="text;align=left;verticalAlign=top;spacingLeft=4;spacingRight=4;overflow=hidden;rotatable=0;points=[[0,0.5],[1,0.5]];portConstraint=eastwest;rounded=0;shadow=0;html=0;" parent="zkfFHV4jXpPFQw0GAbJ--0" vertex="1">
          <mxGeometry y="26" width="370" height="26" as="geometry" />
        </mxCell>
        <mxCell id="dJazrFDQEvs-Zin5iPk2-3" value="LinearLayout craftingUI&#xa;" style="text;align=left;verticalAlign=top;spacingLeft=4;spacingRight=4;overflow=hidden;rotatable=0;points=[[0,0.5],[1,0.5]];portConstraint=eastwest;rounded=0;shadow=0;html=0;" vertex="1" parent="zkfFHV4jXpPFQw0GAbJ--0">
          <mxGeometry y="52" width="370" height="26" as="geometry" />
        </mxCell>
        <mxCell id="dJazrFDQEvs-Zin5iPk2-4" value="Intent MusicControl" style="text;align=left;verticalAlign=top;spacingLeft=4;spacingRight=4;overflow=hidden;rotatable=0;points=[[0,0.5],[1,0.5]];portConstraint=eastwest;rounded=0;shadow=0;html=0;" vertex="1" parent="zkfFHV4jXpPFQw0GAbJ--0">
          <mxGeometry y="78" width="370" height="26" as="geometry" />
        </mxCell>
        <mxCell id="dJazrFDQEvs-Zin5iPk2-5" value="MapDraw Map" style="text;align=left;verticalAlign=top;spacingLeft=4;spacingRight=4;overflow=hidden;rotatable=0;points=[[0,0.5],[1,0.5]];portConstraint=eastwest;rounded=0;shadow=0;html=0;" vertex="1" parent="zkfFHV4jXpPFQw0GAbJ--0">
          <mxGeometry y="104" width="370" height="26" as="geometry" />
        </mxCell>
        <mxCell id="dJazrFDQEvs-Zin5iPk2-6" value="Button displayMap" style="text;align=left;verticalAlign=top;spacingLeft=4;spacingRight=4;overflow=hidden;rotatable=0;points=[[0,0.5],[1,0.5]];portConstraint=eastwest;rounded=0;shadow=0;html=0;" vertex="1" parent="zkfFHV4jXpPFQw0GAbJ--0">
          <mxGeometry y="130" width="370" height="26" as="geometry" />
        </mxCell>
        <mxCell id="dJazrFDQEvs-Zin5iPk2-8" value="Button displayInventory" style="text;align=left;verticalAlign=top;spacingLeft=4;spacingRight=4;overflow=hidden;rotatable=0;points=[[0,0.5],[1,0.5]];portConstraint=eastwest;rounded=0;shadow=0;html=0;" vertex="1" parent="zkfFHV4jXpPFQw0GAbJ--0">
          <mxGeometry y="156" width="370" height="26" as="geometry" />
        </mxCell>
        <mxCell id="dJazrFDQEvs-Zin5iPk2-7" value="Button DisplayCraftingUI" style="text;align=left;verticalAlign=top;spacingLeft=4;spacingRight=4;overflow=hidden;rotatable=0;points=[[0,0.5],[1,0.5]];portConstraint=eastwest;rounded=0;shadow=0;html=0;" vertex="1" parent="zkfFHV4jXpPFQw0GAbJ--0">
          <mxGeometry y="182" width="370" height="26" as="geometry" />
        </mxCell>
        <mxCell id="dJazrFDQEvs-Zin5iPk2-9" value="Button[] slots" style="text;align=left;verticalAlign=top;spacingLeft=4;spacingRight=4;overflow=hidden;rotatable=0;points=[[0,0.5],[1,0.5]];portConstraint=eastwest;rounded=0;shadow=0;html=0;" vertex="1" parent="zkfFHV4jXpPFQw0GAbJ--0">
          <mxGeometry y="208" width="370" height="26" as="geometry" />
        </mxCell>
        <mxCell id="dJazrFDQEvs-Zin5iPk2-10" value="Dialog inventory" style="text;align=left;verticalAlign=top;spacingLeft=4;spacingRight=4;overflow=hidden;rotatable=0;points=[[0,0.5],[1,0.5]];portConstraint=eastwest;rounded=0;shadow=0;html=0;" vertex="1" parent="zkfFHV4jXpPFQw0GAbJ--0">
          <mxGeometry y="234" width="370" height="26" as="geometry" />
        </mxCell>
        <mxCell id="dJazrFDQEvs-Zin5iPk2-11" value="Bitmap spriteSheet" style="text;align=left;verticalAlign=top;spacingLeft=4;spacingRight=4;overflow=hidden;rotatable=0;points=[[0,0.5],[1,0.5]];portConstraint=eastwest;rounded=0;shadow=0;html=0;" vertex="1" parent="zkfFHV4jXpPFQw0GAbJ--0">
          <mxGeometry y="260" width="370" height="26" as="geometry" />
        </mxCell>
        <mxCell id="dJazrFDQEvs-Zin5iPk2-12" value="OnTouchEvent press" style="text;align=left;verticalAlign=top;spacingLeft=4;spacingRight=4;overflow=hidden;rotatable=0;points=[[0,0.5],[1,0.5]];portConstraint=eastwest;rounded=0;shadow=0;html=0;" vertex="1" parent="zkfFHV4jXpPFQw0GAbJ--0">
          <mxGeometry y="286" width="370" height="26" as="geometry" />
        </mxCell>
        <mxCell id="dJazrFDQEvs-Zin5iPk2-13" value="bool IsMinimapShown" style="text;align=left;verticalAlign=top;spacingLeft=4;spacingRight=4;overflow=hidden;rotatable=0;points=[[0,0.5],[1,0.5]];portConstraint=eastwest;rounded=0;shadow=0;html=0;" vertex="1" parent="zkfFHV4jXpPFQw0GAbJ--0">
          <mxGeometry y="312" width="370" height="26" as="geometry" />
        </mxCell>
        <mxCell id="dJazrFDQEvs-Zin5iPk2-14" value="StructureBlueprint UsedBlueprint" style="text;align=left;verticalAlign=top;spacingLeft=4;spacingRight=4;overflow=hidden;rotatable=0;points=[[0,0.5],[1,0.5]];portConstraint=eastwest;rounded=0;shadow=0;html=0;" vertex="1" parent="zkfFHV4jXpPFQw0GAbJ--0">
          <mxGeometry y="338" width="370" height="26" as="geometry" />
        </mxCell>
        <mxCell id="dJazrFDQEvs-Zin5iPk2-15" value="Structure hole" style="text;align=left;verticalAlign=top;spacingLeft=4;spacingRight=4;overflow=hidden;rotatable=0;points=[[0,0.5],[1,0.5]];portConstraint=eastwest;rounded=0;shadow=0;html=0;" vertex="1" parent="zkfFHV4jXpPFQw0GAbJ--0">
          <mxGeometry y="364" width="370" height="26" as="geometry" />
        </mxCell>
        <mxCell id="dJazrFDQEvs-Zin5iPk2-16" value="Timer timer" style="text;align=left;verticalAlign=top;spacingLeft=4;spacingRight=4;overflow=hidden;rotatable=0;points=[[0,0.5],[1,0.5]];portConstraint=eastwest;rounded=0;shadow=0;html=0;" vertex="1" parent="zkfFHV4jXpPFQw0GAbJ--0">
          <mxGeometry y="390" width="370" height="26" as="geometry" />
        </mxCell>
        <mxCell id="dJazrFDQEvs-Zin5iPk2-17" value="const int MAX_FPS" style="text;align=left;verticalAlign=top;spacingLeft=4;spacingRight=4;overflow=hidden;rotatable=0;points=[[0,0.5],[1,0.5]];portConstraint=eastwest;rounded=0;shadow=0;html=0;" vertex="1" parent="zkfFHV4jXpPFQw0GAbJ--0">
          <mxGeometry y="416" width="370" height="26" as="geometry" />
        </mxCell>
        <mxCell id="dJazrFDQEvs-Zin5iPk2-18" value="List&lt;IUpdateable&gt; Updateables" style="text;align=left;verticalAlign=top;spacingLeft=4;spacingRight=4;overflow=hidden;rotatable=0;points=[[0,0.5],[1,0.5]];portConstraint=eastwest;rounded=0;shadow=0;html=0;" vertex="1" parent="zkfFHV4jXpPFQw0GAbJ--0">
          <mxGeometry y="442" width="370" height="26" as="geometry" />
        </mxCell>
        <mxCell id="dJazrFDQEvs-Zin5iPk2-21" value="bool updating" style="text;align=left;verticalAlign=top;spacingLeft=4;spacingRight=4;overflow=hidden;rotatable=0;points=[[0,0.5],[1,0.5]];portConstraint=eastwest;rounded=0;shadow=0;html=0;" vertex="1" parent="zkfFHV4jXpPFQw0GAbJ--0">
          <mxGeometry y="468" width="370" height="26" as="geometry" />
        </mxCell>
        <mxCell id="dJazrFDQEvs-Zin5iPk2-20" value="List&lt;IUpdateable&gt; Updateables" style="text;align=left;verticalAlign=top;spacingLeft=4;spacingRight=4;overflow=hidden;rotatable=0;points=[[0,0.5],[1,0.5]];portConstraint=eastwest;rounded=0;shadow=0;html=0;" vertex="1" parent="zkfFHV4jXpPFQw0GAbJ--0">
          <mxGeometry y="494" width="370" height="26" as="geometry" />
        </mxCell>
        <mxCell id="dJazrFDQEvs-Zin5iPk2-23" value="bool debug" style="text;align=left;verticalAlign=top;spacingLeft=4;spacingRight=4;overflow=hidden;rotatable=0;points=[[0,0.5],[1,0.5]];portConstraint=eastwest;rounded=0;shadow=0;html=0;" vertex="1" parent="zkfFHV4jXpPFQw0GAbJ--0">
          <mxGeometry y="520" width="370" height="26" as="geometry" />
        </mxCell>
        <mxCell id="dJazrFDQEvs-Zin5iPk2-22" value="enum IDs" style="text;align=left;verticalAlign=top;spacingLeft=4;spacingRight=4;overflow=hidden;rotatable=0;points=[[0,0.5],[1,0.5]];portConstraint=eastwest;rounded=0;shadow=0;html=0;" vertex="1" parent="zkfFHV4jXpPFQw0GAbJ--0">
          <mxGeometry y="546" width="370" height="26" as="geometry" />
        </mxCell>
        <mxCell id="zkfFHV4jXpPFQw0GAbJ--4" value="" style="line;html=1;strokeWidth=1;align=left;verticalAlign=middle;spacingTop=-1;spacingLeft=3;spacingRight=3;rotatable=0;labelPosition=right;points=[];portConstraint=eastwest;" parent="zkfFHV4jXpPFQw0GAbJ--0" vertex="1">
          <mxGeometry y="572" width="370" height="8" as="geometry" />
        </mxCell>
        <mxCell id="dJazrFDQEvs-Zin5iPk2-49" value="void OnPause()" style="text;align=left;verticalAlign=top;spacingLeft=4;spacingRight=4;overflow=hidden;rotatable=0;points=[[0,0.5],[1,0.5]];portConstraint=eastwest;" vertex="1" parent="zkfFHV4jXpPFQw0GAbJ--0">
          <mxGeometry y="580" width="370" height="26" as="geometry" />
        </mxCell>
        <mxCell id="zkfFHV4jXpPFQw0GAbJ--5" value="void OnCreate(Bundle savedInstanceState)" style="text;align=left;verticalAlign=top;spacingLeft=4;spacingRight=4;overflow=hidden;rotatable=0;points=[[0,0.5],[1,0.5]];portConstraint=eastwest;" parent="zkfFHV4jXpPFQw0GAbJ--0" vertex="1">
          <mxGeometry y="606" width="370" height="26" as="geometry" />
        </mxCell>
        <mxCell id="dJazrFDQEvs-Zin5iPk2-24" value="void OnResume()" style="text;align=left;verticalAlign=top;spacingLeft=4;spacingRight=4;overflow=hidden;rotatable=0;points=[[0,0.5],[1,0.5]];portConstraint=eastwest;" vertex="1" parent="zkfFHV4jXpPFQw0GAbJ--0">
          <mxGeometry y="632" width="370" height="26" as="geometry" />
        </mxCell>
        <mxCell id="dJazrFDQEvs-Zin5iPk2-25" value="void StartClock()" style="text;align=left;verticalAlign=top;spacingLeft=4;spacingRight=4;overflow=hidden;rotatable=0;points=[[0,0.5],[1,0.5]];portConstraint=eastwest;" vertex="1" parent="zkfFHV4jXpPFQw0GAbJ--0">
          <mxGeometry y="658" width="370" height="26" as="geometry" />
        </mxCell>
        <mxCell id="dJazrFDQEvs-Zin5iPk2-26" value="void StopClock()" style="text;align=left;verticalAlign=top;spacingLeft=4;spacingRight=4;overflow=hidden;rotatable=0;points=[[0,0.5],[1,0.5]];portConstraint=eastwest;" vertex="1" parent="zkfFHV4jXpPFQw0GAbJ--0">
          <mxGeometry y="684" width="370" height="26" as="geometry" />
        </mxCell>
        <mxCell id="dJazrFDQEvs-Zin5iPk2-27" value="async void Tick(object sender, System.Timers.ElapsedEventArgs e)" style="text;align=left;verticalAlign=top;spacingLeft=4;spacingRight=4;overflow=hidden;rotatable=0;points=[[0,0.5],[1,0.5]];portConstraint=eastwest;" vertex="1" parent="zkfFHV4jXpPFQw0GAbJ--0">
          <mxGeometry y="710" width="370" height="26" as="geometry" />
        </mxCell>
        <mxCell id="dJazrFDQEvs-Zin5iPk2-28" value="void Invalidate()" style="text;align=left;verticalAlign=top;spacingLeft=4;spacingRight=4;overflow=hidden;rotatable=0;points=[[0,0.5],[1,0.5]];portConstraint=eastwest;" vertex="1" parent="zkfFHV4jXpPFQw0GAbJ--0">
          <mxGeometry y="736" width="370" height="26" as="geometry" />
        </mxCell>
        <mxCell id="dJazrFDQEvs-Zin5iPk2-29" value="void DisplayCraftingUI_Click(object sender, EventArgs e)" style="text;align=left;verticalAlign=top;spacingLeft=4;spacingRight=4;overflow=hidden;rotatable=0;points=[[0,0.5],[1,0.5]];portConstraint=eastwest;" vertex="1" parent="zkfFHV4jXpPFQw0GAbJ--0">
          <mxGeometry y="762" width="370" height="26" as="geometry" />
        </mxCell>
        <mxCell id="dJazrFDQEvs-Zin5iPk2-30" value="void Turn90Right_Click(object sender, EventArgs e)" style="text;align=left;verticalAlign=top;spacingLeft=4;spacingRight=4;overflow=hidden;rotatable=0;points=[[0,0.5],[1,0.5]];portConstraint=eastwest;" vertex="1" parent="zkfFHV4jXpPFQw0GAbJ--0">
          <mxGeometry y="788" width="370" height="26" as="geometry" />
        </mxCell>
        <mxCell id="dJazrFDQEvs-Zin5iPk2-31" value="void WoodFloor_Click(object sender, EventArgs e)" style="text;align=left;verticalAlign=top;spacingLeft=4;spacingRight=4;overflow=hidden;rotatable=0;points=[[0,0.5],[1,0.5]];portConstraint=eastwest;" vertex="1" parent="zkfFHV4jXpPFQw0GAbJ--0">
          <mxGeometry y="814" width="370" height="26" as="geometry" />
        </mxCell>
        <mxCell id="dJazrFDQEvs-Zin5iPk2-32" value="void WoodWall_Click(object sender, EventArgs e)" style="text;align=left;verticalAlign=top;spacingLeft=4;spacingRight=4;overflow=hidden;rotatable=0;points=[[0,0.5],[1,0.5]];portConstraint=eastwest;" vertex="1" parent="zkfFHV4jXpPFQw0GAbJ--0">
          <mxGeometry y="840" width="370" height="26" as="geometry" />
        </mxCell>
        <mxCell id="dJazrFDQEvs-Zin5iPk2-33" value="void SawingTable_Click(object sender, EventArgs e)" style="text;align=left;verticalAlign=top;spacingLeft=4;spacingRight=4;overflow=hidden;rotatable=0;points=[[0,0.5],[1,0.5]];portConstraint=eastwest;" vertex="1" parent="zkfFHV4jXpPFQw0GAbJ--0">
          <mxGeometry y="866" width="370" height="26" as="geometry" />
        </mxCell>
        <mxCell id="dJazrFDQEvs-Zin5iPk2-34" value="Button GetCraftingUIButton(int id, int width, int height)" style="text;align=left;verticalAlign=top;spacingLeft=4;spacingRight=4;overflow=hidden;rotatable=0;points=[[0,0.5],[1,0.5]];portConstraint=eastwest;" vertex="1" parent="zkfFHV4jXpPFQw0GAbJ--0">
          <mxGeometry y="892" width="370" height="26" as="geometry" />
        </mxCell>
        <mxCell id="dJazrFDQEvs-Zin5iPk2-35" value="void StorageBox_Click(object sender, EventArgs e)" style="text;align=left;verticalAlign=top;spacingLeft=4;spacingRight=4;overflow=hidden;rotatable=0;points=[[0,0.5],[1,0.5]];portConstraint=eastwest;" vertex="1" parent="zkfFHV4jXpPFQw0GAbJ--0">
          <mxGeometry y="918" width="370" height="26" as="geometry" />
        </mxCell>
        <mxCell id="dJazrFDQEvs-Zin5iPk2-36" value="void CraftingStation_Click(object sender, EventArgs e)" style="text;align=left;verticalAlign=top;spacingLeft=4;spacingRight=4;overflow=hidden;rotatable=0;points=[[0,0.5],[1,0.5]];portConstraint=eastwest;" vertex="1" parent="zkfFHV4jXpPFQw0GAbJ--0">
          <mxGeometry y="944" width="370" height="26" as="geometry" />
        </mxCell>
        <mxCell id="dJazrFDQEvs-Zin5iPk2-37" value="void Close_Click(object sender, EventArgs e)" style="text;align=left;verticalAlign=top;spacingLeft=4;spacingRight=4;overflow=hidden;rotatable=0;points=[[0,0.5],[1,0.5]];portConstraint=eastwest;" vertex="1" parent="zkfFHV4jXpPFQw0GAbJ--0">
          <mxGeometry y="970" width="370" height="26" as="geometry" />
        </mxCell>
        <mxCell id="dJazrFDQEvs-Zin5iPk2-38" value="async void DisplayMap_Click(object sender, EventArgs e)" style="text;align=left;verticalAlign=top;spacingLeft=4;spacingRight=4;overflow=hidden;rotatable=0;points=[[0,0.5],[1,0.5]];portConstraint=eastwest;" vertex="1" parent="zkfFHV4jXpPFQw0GAbJ--0">
          <mxGeometry y="996" width="370" height="26" as="geometry" />
        </mxCell>
        <mxCell id="dJazrFDQEvs-Zin5iPk2-39" value="void Minimap_CancelEvent(object sender, EventArgs e)" style="text;align=left;verticalAlign=top;spacingLeft=4;spacingRight=4;overflow=hidden;rotatable=0;points=[[0,0.5],[1,0.5]];portConstraint=eastwest;" vertex="1" parent="zkfFHV4jXpPFQw0GAbJ--0">
          <mxGeometry y="1022" width="370" height="26" as="geometry" />
        </mxCell>
        <mxCell id="dJazrFDQEvs-Zin5iPk2-40" value="void Hide_Inventory()" style="text;align=left;verticalAlign=top;spacingLeft=4;spacingRight=4;overflow=hidden;rotatable=0;points=[[0,0.5],[1,0.5]];portConstraint=eastwest;" vertex="1" parent="zkfFHV4jXpPFQw0GAbJ--0">
          <mxGeometry y="1048" width="370" height="26" as="geometry" />
        </mxCell>
        <mxCell id="dJazrFDQEvs-Zin5iPk2-41" value="void DisplayInventory_Click(object sender, EventArgs e)" style="text;align=left;verticalAlign=top;spacingLeft=4;spacingRight=4;overflow=hidden;rotatable=0;points=[[0,0.5],[1,0.5]];portConstraint=eastwest;" vertex="1" parent="zkfFHV4jXpPFQw0GAbJ--0">
          <mxGeometry y="1074" width="370" height="26" as="geometry" />
        </mxCell>
        <mxCell id="dJazrFDQEvs-Zin5iPk2-42" value="void Debug_Click(object sender, EventArgs e)" style="text;align=left;verticalAlign=top;spacingLeft=4;spacingRight=4;overflow=hidden;rotatable=0;points=[[0,0.5],[1,0.5]];portConstraint=eastwest;" vertex="1" parent="zkfFHV4jXpPFQw0GAbJ--0">
          <mxGeometry y="1100" width="370" height="26" as="geometry" />
        </mxCell>
        <mxCell id="dJazrFDQEvs-Zin5iPk2-43" value="void Debug_CancelEvent(object sender, EventArgs e)" style="text;align=left;verticalAlign=top;spacingLeft=4;spacingRight=4;overflow=hidden;rotatable=0;points=[[0,0.5],[1,0.5]];portConstraint=eastwest;" vertex="1" parent="zkfFHV4jXpPFQw0GAbJ--0">
          <mxGeometry y="1126" width="370" height="26" as="geometry" />
        </mxCell>
        <mxCell id="dJazrFDQEvs-Zin5iPk2-44" value="bool IsItem(int id)" style="text;align=left;verticalAlign=top;spacingLeft=4;spacingRight=4;overflow=hidden;rotatable=0;points=[[0,0.5],[1,0.5]];portConstraint=eastwest;" vertex="1" parent="zkfFHV4jXpPFQw0GAbJ--0">
          <mxGeometry y="1152" width="370" height="26" as="geometry" />
        </mxCell>
        <mxCell id="dJazrFDQEvs-Zin5iPk2-45" value="void GiveItem_Click(object sender, EventArgs e)" style="text;align=left;verticalAlign=top;spacingLeft=4;spacingRight=4;overflow=hidden;rotatable=0;points=[[0,0.5],[1,0.5]];portConstraint=eastwest;" vertex="1" parent="zkfFHV4jXpPFQw0GAbJ--0">
          <mxGeometry y="1178" width="370" height="26" as="geometry" />
        </mxCell>
        <mxCell id="dJazrFDQEvs-Zin5iPk2-46" value="Bitmap GetIcon(int id, Context C)" style="text;align=left;verticalAlign=top;spacingLeft=4;spacingRight=4;overflow=hidden;rotatable=0;points=[[0,0.5],[1,0.5]];portConstraint=eastwest;" vertex="1" parent="zkfFHV4jXpPFQw0GAbJ--0">
          <mxGeometry y="1204" width="370" height="26" as="geometry" />
        </mxCell>
        <mxCell id="dJazrFDQEvs-Zin5iPk2-47" value="void DeEquip(object sender, EventArgs e)" style="text;align=left;verticalAlign=top;spacingLeft=4;spacingRight=4;overflow=hidden;rotatable=0;points=[[0,0.5],[1,0.5]];portConstraint=eastwest;" vertex="1" parent="zkfFHV4jXpPFQw0GAbJ--0">
          <mxGeometry y="1230" width="370" height="26" as="geometry" />
        </mxCell>
        <mxCell id="dJazrFDQEvs-Zin5iPk2-48" value="bool OnTouchEvent(MotionEvent e)" style="text;align=left;verticalAlign=top;spacingLeft=4;spacingRight=4;overflow=hidden;rotatable=0;points=[[0,0.5],[1,0.5]];portConstraint=eastwest;" vertex="1" parent="zkfFHV4jXpPFQw0GAbJ--0">
          <mxGeometry y="1256" width="370" height="26" as="geometry" />
        </mxCell>
        <mxCell id="dJazrFDQEvs-Zin5iPk2-50" value="MapDraw" style="swimlane;fontStyle=2;align=center;verticalAlign=top;childLayout=stackLayout;horizontal=1;startSize=26;horizontalStack=0;resizeParent=1;resizeLast=0;collapsible=1;marginBottom=0;rounded=0;shadow=0;strokeWidth=1;" vertex="1" parent="WIyWlLk6GJQsqaUBKTNV-1">
          <mxGeometry x="540" y="-740" width="320" height="570" as="geometry">
            <mxRectangle x="230" y="140" width="160" height="26" as="alternateBounds" />
          </mxGeometry>
        </mxCell>
        <mxCell id="dJazrFDQEvs-Zin5iPk2-51" value="MapGenerator Generator" style="text;align=left;verticalAlign=top;spacingLeft=4;spacingRight=4;overflow=hidden;rotatable=0;points=[[0,0.5],[1,0.5]];portConstraint=eastwest;rounded=0;shadow=0;html=0;" vertex="1" parent="dJazrFDQEvs-Zin5iPk2-50">
          <mxGeometry y="26" width="320" height="26" as="geometry" />
        </mxCell>
        <mxCell id="dJazrFDQEvs-Zin5iPk2-52" value="Context context" style="text;align=left;verticalAlign=top;spacingLeft=4;spacingRight=4;overflow=hidden;rotatable=0;points=[[0,0.5],[1,0.5]];portConstraint=eastwest;rounded=0;shadow=0;html=0;" vertex="1" parent="dJazrFDQEvs-Zin5iPk2-50">
          <mxGeometry y="52" width="320" height="26" as="geometry" />
        </mxCell>
        <mxCell id="dJazrFDQEvs-Zin5iPk2-53" value="Vector2 renderDistance" style="text;align=left;verticalAlign=top;spacingLeft=4;spacingRight=4;overflow=hidden;rotatable=0;points=[[0,0.5],[1,0.5]];portConstraint=eastwest;rounded=0;shadow=0;html=0;" vertex="1" parent="dJazrFDQEvs-Zin5iPk2-50">
          <mxGeometry y="78" width="320" height="26" as="geometry" />
        </mxCell>
        <mxCell id="dJazrFDQEvs-Zin5iPk2-54" value="Vector2 camera" style="text;align=left;verticalAlign=top;spacingLeft=4;spacingRight=4;overflow=hidden;rotatable=0;points=[[0,0.5],[1,0.5]];portConstraint=eastwest;rounded=0;shadow=0;html=0;" vertex="1" parent="dJazrFDQEvs-Zin5iPk2-50">
          <mxGeometry y="104" width="320" height="26" as="geometry" />
        </mxCell>
        <mxCell id="dJazrFDQEvs-Zin5iPk2-55" value="Vector2 LastPoint" style="text;align=left;verticalAlign=top;spacingLeft=4;spacingRight=4;overflow=hidden;rotatable=0;points=[[0,0.5],[1,0.5]];portConstraint=eastwest;rounded=0;shadow=0;html=0;" vertex="1" parent="dJazrFDQEvs-Zin5iPk2-50">
          <mxGeometry y="130" width="320" height="26" as="geometry" />
        </mxCell>
        <mxCell id="dJazrFDQEvs-Zin5iPk2-56" value="Player Player" style="text;align=left;verticalAlign=top;spacingLeft=4;spacingRight=4;overflow=hidden;rotatable=0;points=[[0,0.5],[1,0.5]];portConstraint=eastwest;rounded=0;shadow=0;html=0;" vertex="1" parent="dJazrFDQEvs-Zin5iPk2-50">
          <mxGeometry y="156" width="320" height="26" as="geometry" />
        </mxCell>
        <mxCell id="dJazrFDQEvs-Zin5iPk2-57" value="bool tap" style="text;align=left;verticalAlign=top;spacingLeft=4;spacingRight=4;overflow=hidden;rotatable=0;points=[[0,0.5],[1,0.5]];portConstraint=eastwest;rounded=0;shadow=0;html=0;" vertex="1" parent="dJazrFDQEvs-Zin5iPk2-50">
          <mxGeometry y="182" width="320" height="26" as="geometry" />
        </mxCell>
        <mxCell id="dJazrFDQEvs-Zin5iPk2-58" value="bool Drawn" style="text;align=left;verticalAlign=top;spacingLeft=4;spacingRight=4;overflow=hidden;rotatable=0;points=[[0,0.5],[1,0.5]];portConstraint=eastwest;rounded=0;shadow=0;html=0;" vertex="1" parent="dJazrFDQEvs-Zin5iPk2-50">
          <mxGeometry y="208" width="320" height="26" as="geometry" />
        </mxCell>
        <mxCell id="dJazrFDQEvs-Zin5iPk2-59" value="const int spriteSheetColoumnCount" style="text;align=left;verticalAlign=top;spacingLeft=4;spacingRight=4;overflow=hidden;rotatable=0;points=[[0,0.5],[1,0.5]];portConstraint=eastwest;rounded=0;shadow=0;html=0;" vertex="1" parent="dJazrFDQEvs-Zin5iPk2-50">
          <mxGeometry y="234" width="320" height="26" as="geometry" />
        </mxCell>
        <mxCell id="dJazrFDQEvs-Zin5iPk2-60" value="bool editMode" style="text;align=left;verticalAlign=top;spacingLeft=4;spacingRight=4;overflow=hidden;rotatable=0;points=[[0,0.5],[1,0.5]];portConstraint=eastwest;rounded=0;shadow=0;html=0;" vertex="1" parent="dJazrFDQEvs-Zin5iPk2-50">
          <mxGeometry y="260" width="320" height="26" as="geometry" />
        </mxCell>
        <mxCell id="dJazrFDQEvs-Zin5iPk2-72" value="" style="line;html=1;strokeWidth=1;align=left;verticalAlign=middle;spacingTop=-1;spacingLeft=3;spacingRight=3;rotatable=0;labelPosition=right;points=[];portConstraint=eastwest;" vertex="1" parent="dJazrFDQEvs-Zin5iPk2-50">
          <mxGeometry y="286" width="320" height="8" as="geometry" />
        </mxCell>
        <mxCell id="dJazrFDQEvs-Zin5iPk2-73" value="MapDraw(Context context)" style="text;align=left;verticalAlign=top;spacingLeft=4;spacingRight=4;overflow=hidden;rotatable=0;points=[[0,0.5],[1,0.5]];portConstraint=eastwest;" vertex="1" parent="dJazrFDQEvs-Zin5iPk2-50">
          <mxGeometry y="294" width="320" height="26" as="geometry" />
        </mxCell>
        <mxCell id="dJazrFDQEvs-Zin5iPk2-74" value="MapDraw(Context context, MapGenerator gen, Player p)" style="text;align=left;verticalAlign=top;spacingLeft=4;spacingRight=4;overflow=hidden;rotatable=0;points=[[0,0.5],[1,0.5]];portConstraint=eastwest;" vertex="1" parent="dJazrFDQEvs-Zin5iPk2-50">
          <mxGeometry y="320" width="320" height="26" as="geometry" />
        </mxCell>
        <mxCell id="dJazrFDQEvs-Zin5iPk2-75" value="void OnDraw(Canvas canvas)" style="text;align=left;verticalAlign=top;spacingLeft=4;spacingRight=4;overflow=hidden;rotatable=0;points=[[0,0.5],[1,0.5]];portConstraint=eastwest;" vertex="1" parent="dJazrFDQEvs-Zin5iPk2-50">
          <mxGeometry y="346" width="320" height="26" as="geometry" />
        </mxCell>
        <mxCell id="dJazrFDQEvs-Zin5iPk2-76" value="bool OnTouchEvent(MotionEvent e)" style="text;align=left;verticalAlign=top;spacingLeft=4;spacingRight=4;overflow=hidden;rotatable=0;points=[[0,0.5],[1,0.5]];portConstraint=eastwest;" vertex="1" parent="dJazrFDQEvs-Zin5iPk2-50">
          <mxGeometry y="372" width="320" height="26" as="geometry" />
        </mxCell>
        <mxCell id="dJazrFDQEvs-Zin5iPk2-77" value="void CorrectCamera()" style="text;align=left;verticalAlign=top;spacingLeft=4;spacingRight=4;overflow=hidden;rotatable=0;points=[[0,0.5],[1,0.5]];portConstraint=eastwest;" vertex="1" parent="dJazrFDQEvs-Zin5iPk2-50">
          <mxGeometry y="398" width="320" height="26" as="geometry" />
        </mxCell>
        <mxCell id="dJazrFDQEvs-Zin5iPk2-78" value="Bitmap DisplayMap(int width, int height)" style="text;align=left;verticalAlign=top;spacingLeft=4;spacingRight=4;overflow=hidden;rotatable=0;points=[[0,0.5],[1,0.5]];portConstraint=eastwest;" vertex="1" parent="dJazrFDQEvs-Zin5iPk2-50">
          <mxGeometry y="424" width="320" height="26" as="geometry" />
        </mxCell>
        <mxCell id="dJazrFDQEvs-Zin5iPk2-79" value="bool IsDrawn()" style="text;align=left;verticalAlign=top;spacingLeft=4;spacingRight=4;overflow=hidden;rotatable=0;points=[[0,0.5],[1,0.5]];portConstraint=eastwest;" vertex="1" parent="dJazrFDQEvs-Zin5iPk2-50">
          <mxGeometry y="450" width="320" height="26" as="geometry" />
        </mxCell>
        <mxCell id="dJazrFDQEvs-Zin5iPk2-80" value="void GenerateItems()" style="text;align=left;verticalAlign=top;spacingLeft=4;spacingRight=4;overflow=hidden;rotatable=0;points=[[0,0.5],[1,0.5]];portConstraint=eastwest;" vertex="1" parent="dJazrFDQEvs-Zin5iPk2-50">
          <mxGeometry y="476" width="320" height="26" as="geometry" />
        </mxCell>
        <mxCell id="dJazrFDQEvs-Zin5iPk2-81" value="bool DropItem(int index)" style="text;align=left;verticalAlign=top;spacingLeft=4;spacingRight=4;overflow=hidden;rotatable=0;points=[[0,0.5],[1,0.5]];portConstraint=eastwest;" vertex="1" parent="dJazrFDQEvs-Zin5iPk2-50">
          <mxGeometry y="502" width="320" height="26" as="geometry" />
        </mxCell>
        <mxCell id="dJazrFDQEvs-Zin5iPk2-82" value="void Save()" style="text;align=left;verticalAlign=top;spacingLeft=4;spacingRight=4;overflow=hidden;rotatable=0;points=[[0,0.5],[1,0.5]];portConstraint=eastwest;" vertex="1" parent="dJazrFDQEvs-Zin5iPk2-50">
          <mxGeometry y="528" width="320" height="26" as="geometry" />
        </mxCell>
        <mxCell id="dJazrFDQEvs-Zin5iPk2-100" style="edgeStyle=orthogonalEdgeStyle;rounded=0;orthogonalLoop=1;jettySize=auto;html=1;exitX=1;exitY=0.5;exitDx=0;exitDy=0;entryX=0.002;entryY=0.015;entryDx=0;entryDy=0;entryPerimeter=0;" edge="1" parent="WIyWlLk6GJQsqaUBKTNV-1" source="dJazrFDQEvs-Zin5iPk2-5" target="dJazrFDQEvs-Zin5iPk2-50">
          <mxGeometry relative="1" as="geometry">
            <mxPoint x="470" y="236.52941176470586" as="targetPoint" />
          </mxGeometry>
        </mxCell>
        <mxCell id="dJazrFDQEvs-Zin5iPk2-101" value="OnTouchEvent" style="swimlane;fontStyle=2;align=center;verticalAlign=top;childLayout=stackLayout;horizontal=1;startSize=26;horizontalStack=0;resizeParent=1;resizeLast=0;collapsible=1;marginBottom=0;rounded=0;shadow=0;strokeWidth=1;" vertex="1" parent="WIyWlLk6GJQsqaUBKTNV-1">
          <mxGeometry x="560" y="-130" width="280" height="390" as="geometry">
            <mxRectangle x="230" y="140" width="160" height="26" as="alternateBounds" />
          </mxGeometry>
        </mxCell>
        <mxCell id="dJazrFDQEvs-Zin5iPk2-102" value="Timer t" style="text;align=left;verticalAlign=top;spacingLeft=4;spacingRight=4;overflow=hidden;rotatable=0;points=[[0,0.5],[1,0.5]];portConstraint=eastwest;rounded=0;shadow=0;html=0;" vertex="1" parent="dJazrFDQEvs-Zin5iPk2-101">
          <mxGeometry y="26" width="280" height="26" as="geometry" />
        </mxCell>
        <mxCell id="dJazrFDQEvs-Zin5iPk2-103" value="GameActivity activity" style="text;align=left;verticalAlign=top;spacingLeft=4;spacingRight=4;overflow=hidden;rotatable=0;points=[[0,0.5],[1,0.5]];portConstraint=eastwest;rounded=0;shadow=0;html=0;" vertex="1" parent="dJazrFDQEvs-Zin5iPk2-101">
          <mxGeometry y="52" width="280" height="26" as="geometry" />
        </mxCell>
        <mxCell id="dJazrFDQEvs-Zin5iPk2-104" value="View lastView" style="text;align=left;verticalAlign=top;spacingLeft=4;spacingRight=4;overflow=hidden;rotatable=0;points=[[0,0.5],[1,0.5]];portConstraint=eastwest;rounded=0;shadow=0;html=0;" vertex="1" parent="dJazrFDQEvs-Zin5iPk2-101">
          <mxGeometry y="78" width="280" height="26" as="geometry" />
        </mxCell>
        <mxCell id="dJazrFDQEvs-Zin5iPk2-105" value="bool finished" style="text;align=left;verticalAlign=top;spacingLeft=4;spacingRight=4;overflow=hidden;rotatable=0;points=[[0,0.5],[1,0.5]];portConstraint=eastwest;rounded=0;shadow=0;html=0;" vertex="1" parent="dJazrFDQEvs-Zin5iPk2-101">
          <mxGeometry y="104" width="280" height="26" as="geometry" />
        </mxCell>
        <mxCell id="dJazrFDQEvs-Zin5iPk2-106" value="StructureBlueprint blueprint" style="text;align=left;verticalAlign=top;spacingLeft=4;spacingRight=4;overflow=hidden;rotatable=0;points=[[0,0.5],[1,0.5]];portConstraint=eastwest;rounded=0;shadow=0;html=0;" vertex="1" parent="dJazrFDQEvs-Zin5iPk2-101">
          <mxGeometry y="130" width="280" height="26" as="geometry" />
        </mxCell>
        <mxCell id="dJazrFDQEvs-Zin5iPk2-107" value="Structure hole" style="text;align=left;verticalAlign=top;spacingLeft=4;spacingRight=4;overflow=hidden;rotatable=0;points=[[0,0.5],[1,0.5]];portConstraint=eastwest;rounded=0;shadow=0;html=0;" vertex="1" parent="dJazrFDQEvs-Zin5iPk2-101">
          <mxGeometry y="156" width="280" height="26" as="geometry" />
        </mxCell>
        <mxCell id="dJazrFDQEvs-Zin5iPk2-123" value="" style="line;html=1;strokeWidth=1;align=left;verticalAlign=middle;spacingTop=-1;spacingLeft=3;spacingRight=3;rotatable=0;labelPosition=right;points=[];portConstraint=eastwest;" vertex="1" parent="dJazrFDQEvs-Zin5iPk2-101">
          <mxGeometry y="182" width="280" height="8" as="geometry" />
        </mxCell>
        <mxCell id="dJazrFDQEvs-Zin5iPk2-124" value="OnTouchEvent()" style="text;align=left;verticalAlign=top;spacingLeft=4;spacingRight=4;overflow=hidden;rotatable=0;points=[[0,0.5],[1,0.5]];portConstraint=eastwest;" vertex="1" parent="dJazrFDQEvs-Zin5iPk2-101">
          <mxGeometry y="190" width="280" height="26" as="geometry" />
        </mxCell>
        <mxCell id="dJazrFDQEvs-Zin5iPk2-125" value="OnTouchEvent(GameActivity activity)" style="text;align=left;verticalAlign=top;spacingLeft=4;spacingRight=4;overflow=hidden;rotatable=0;points=[[0,0.5],[1,0.5]];portConstraint=eastwest;" vertex="1" parent="dJazrFDQEvs-Zin5iPk2-101">
          <mxGeometry y="216" width="280" height="26" as="geometry" />
        </mxCell>
        <mxCell id="dJazrFDQEvs-Zin5iPk2-126" value="bool OnTouch(View v, MotionEvent e)" style="text;align=left;verticalAlign=top;spacingLeft=4;spacingRight=4;overflow=hidden;rotatable=0;points=[[0,0.5],[1,0.5]];portConstraint=eastwest;" vertex="1" parent="dJazrFDQEvs-Zin5iPk2-101">
          <mxGeometry y="242" width="280" height="26" as="geometry" />
        </mxCell>
        <mxCell id="dJazrFDQEvs-Zin5iPk2-127" value="void SetBlueprint(StructureBlueprint sb)" style="text;align=left;verticalAlign=top;spacingLeft=4;spacingRight=4;overflow=hidden;rotatable=0;points=[[0,0.5],[1,0.5]];portConstraint=eastwest;" vertex="1" parent="dJazrFDQEvs-Zin5iPk2-101">
          <mxGeometry y="268" width="280" height="26" as="geometry" />
        </mxCell>
        <mxCell id="dJazrFDQEvs-Zin5iPk2-128" value="void SetStructure(Structure s)" style="text;align=left;verticalAlign=top;spacingLeft=4;spacingRight=4;overflow=hidden;rotatable=0;points=[[0,0.5],[1,0.5]];portConstraint=eastwest;" vertex="1" parent="dJazrFDQEvs-Zin5iPk2-101">
          <mxGeometry y="294" width="280" height="26" as="geometry" />
        </mxCell>
        <mxCell id="dJazrFDQEvs-Zin5iPk2-129" value="void Elapsed(object sender, ElapsedEventArgs e)" style="text;align=left;verticalAlign=top;spacingLeft=4;spacingRight=4;overflow=hidden;rotatable=0;points=[[0,0.5],[1,0.5]];portConstraint=eastwest;" vertex="1" parent="dJazrFDQEvs-Zin5iPk2-101">
          <mxGeometry y="320" width="280" height="26" as="geometry" />
        </mxCell>
        <mxCell id="dJazrFDQEvs-Zin5iPk2-130" value="void Equip()" style="text;align=left;verticalAlign=top;spacingLeft=4;spacingRight=4;overflow=hidden;rotatable=0;points=[[0,0.5],[1,0.5]];portConstraint=eastwest;" vertex="1" parent="dJazrFDQEvs-Zin5iPk2-101">
          <mxGeometry y="346" width="280" height="26" as="geometry" />
        </mxCell>
        <mxCell id="dJazrFDQEvs-Zin5iPk2-151" style="edgeStyle=orthogonalEdgeStyle;rounded=0;orthogonalLoop=1;jettySize=auto;html=1;entryX=-0.004;entryY=0.015;entryDx=0;entryDy=0;entryPerimeter=0;" edge="1" parent="WIyWlLk6GJQsqaUBKTNV-1" source="dJazrFDQEvs-Zin5iPk2-12" target="dJazrFDQEvs-Zin5iPk2-101">
          <mxGeometry relative="1" as="geometry">
            <Array as="points">
              <mxPoint x="490" y="369" />
              <mxPoint x="490" y="-124" />
            </Array>
          </mxGeometry>
        </mxCell>
        <mxCell id="dJazrFDQEvs-Zin5iPk2-152" style="edgeStyle=orthogonalEdgeStyle;rounded=0;orthogonalLoop=1;jettySize=auto;html=1;entryX=0.945;entryY=-0.004;entryDx=0;entryDy=0;entryPerimeter=0;" edge="1" parent="WIyWlLk6GJQsqaUBKTNV-1" source="dJazrFDQEvs-Zin5iPk2-103" target="zkfFHV4jXpPFQw0GAbJ--0">
          <mxGeometry relative="1" as="geometry" />
        </mxCell>
        <mxCell id="dJazrFDQEvs-Zin5iPk2-153" value="StructureBlueprint" style="swimlane;fontStyle=2;align=center;verticalAlign=top;childLayout=stackLayout;horizontal=1;startSize=26;horizontalStack=0;resizeParent=1;resizeLast=0;collapsible=1;marginBottom=0;rounded=0;shadow=0;strokeWidth=1;" vertex="1" parent="WIyWlLk6GJQsqaUBKTNV-1">
          <mxGeometry x="550" y="390" width="390" height="220" as="geometry">
            <mxRectangle x="230" y="140" width="160" height="26" as="alternateBounds" />
          </mxGeometry>
        </mxCell>
        <mxCell id="dJazrFDQEvs-Zin5iPk2-154" value="Structure Result" style="text;align=left;verticalAlign=top;spacingLeft=4;spacingRight=4;overflow=hidden;rotatable=0;points=[[0,0.5],[1,0.5]];portConstraint=eastwest;rounded=0;shadow=0;html=0;" vertex="1" parent="dJazrFDQEvs-Zin5iPk2-153">
          <mxGeometry y="26" width="390" height="26" as="geometry" />
        </mxCell>
        <mxCell id="dJazrFDQEvs-Zin5iPk2-155" value="List&lt;Delivery&gt; Recipe" style="text;align=left;verticalAlign=top;spacingLeft=4;spacingRight=4;overflow=hidden;rotatable=0;points=[[0,0.5],[1,0.5]];portConstraint=eastwest;rounded=0;shadow=0;html=0;" vertex="1" parent="dJazrFDQEvs-Zin5iPk2-153">
          <mxGeometry y="52" width="390" height="26" as="geometry" />
        </mxCell>
        <mxCell id="dJazrFDQEvs-Zin5iPk2-156" value="Terrain Parent" style="text;align=left;verticalAlign=top;spacingLeft=4;spacingRight=4;overflow=hidden;rotatable=0;points=[[0,0.5],[1,0.5]];portConstraint=eastwest;rounded=0;shadow=0;html=0;" vertex="1" parent="dJazrFDQEvs-Zin5iPk2-153">
          <mxGeometry y="78" width="390" height="26" as="geometry" />
        </mxCell>
        <mxCell id="dJazrFDQEvs-Zin5iPk2-160" value="" style="line;html=1;strokeWidth=1;align=left;verticalAlign=middle;spacingTop=-1;spacingLeft=3;spacingRight=3;rotatable=0;labelPosition=right;points=[];portConstraint=eastwest;" vertex="1" parent="dJazrFDQEvs-Zin5iPk2-153">
          <mxGeometry y="104" width="390" height="8" as="geometry" />
        </mxCell>
        <mxCell id="dJazrFDQEvs-Zin5iPk2-157" value="StructureBlueprint(Structure structure, Delivery[] recipe, Terrain parent)" style="text;align=left;verticalAlign=top;spacingLeft=4;spacingRight=4;overflow=hidden;rotatable=0;points=[[0,0.5],[1,0.5]];portConstraint=eastwest;rounded=0;shadow=0;html=0;" vertex="1" parent="dJazrFDQEvs-Zin5iPk2-153">
          <mxGeometry y="112" width="390" height="26" as="geometry" />
        </mxCell>
        <mxCell id="dJazrFDQEvs-Zin5iPk2-161" value="void SetTerrain(Terrain t)" style="text;align=left;verticalAlign=top;spacingLeft=4;spacingRight=4;overflow=hidden;rotatable=0;points=[[0,0.5],[1,0.5]];portConstraint=eastwest;" vertex="1" parent="dJazrFDQEvs-Zin5iPk2-153">
          <mxGeometry y="138" width="390" height="26" as="geometry" />
        </mxCell>
        <mxCell id="dJazrFDQEvs-Zin5iPk2-162" value="bool AddItem(Item item)" style="text;align=left;verticalAlign=top;spacingLeft=4;spacingRight=4;overflow=hidden;rotatable=0;points=[[0,0.5],[1,0.5]];portConstraint=eastwest;" vertex="1" parent="dJazrFDQEvs-Zin5iPk2-153">
          <mxGeometry y="164" width="390" height="26" as="geometry" />
        </mxCell>
        <mxCell id="dJazrFDQEvs-Zin5iPk2-163" value="bool Destory(Player p)" style="text;align=left;verticalAlign=top;spacingLeft=4;spacingRight=4;overflow=hidden;rotatable=0;points=[[0,0.5],[1,0.5]];portConstraint=eastwest;" vertex="1" parent="dJazrFDQEvs-Zin5iPk2-153">
          <mxGeometry y="190" width="390" height="26" as="geometry" />
        </mxCell>
        <mxCell id="dJazrFDQEvs-Zin5iPk2-168" style="edgeStyle=orthogonalEdgeStyle;rounded=0;orthogonalLoop=1;jettySize=auto;html=1;entryX=-0.006;entryY=0.061;entryDx=0;entryDy=0;entryPerimeter=0;" edge="1" parent="WIyWlLk6GJQsqaUBKTNV-1" source="dJazrFDQEvs-Zin5iPk2-14" target="dJazrFDQEvs-Zin5iPk2-153">
          <mxGeometry relative="1" as="geometry" />
        </mxCell>
        <mxCell id="dJazrFDQEvs-Zin5iPk2-169" value="Structure" style="swimlane;fontStyle=2;align=center;verticalAlign=top;childLayout=stackLayout;horizontal=1;startSize=26;horizontalStack=0;resizeParent=1;resizeLast=0;collapsible=1;marginBottom=0;rounded=0;shadow=0;strokeWidth=1;" vertex="1" parent="WIyWlLk6GJQsqaUBKTNV-1">
          <mxGeometry x="930" y="-220" width="790" height="502" as="geometry">
            <mxRectangle x="230" y="140" width="160" height="26" as="alternateBounds" />
          </mxGeometry>
        </mxCell>
        <mxCell id="dJazrFDQEvs-Zin5iPk2-170" value="string Name" style="text;align=left;verticalAlign=top;spacingLeft=4;spacingRight=4;overflow=hidden;rotatable=0;points=[[0,0.5],[1,0.5]];portConstraint=eastwest;rounded=0;shadow=0;html=0;" vertex="1" parent="dJazrFDQEvs-Zin5iPk2-169">
          <mxGeometry y="26" width="790" height="26" as="geometry" />
        </mxCell>
        <mxCell id="dJazrFDQEvs-Zin5iPk2-171" value="int Id" style="text;align=left;verticalAlign=top;spacingLeft=4;spacingRight=4;overflow=hidden;rotatable=0;points=[[0,0.5],[1,0.5]];portConstraint=eastwest;rounded=0;shadow=0;html=0;" vertex="1" parent="dJazrFDQEvs-Zin5iPk2-169">
          <mxGeometry y="52" width="790" height="26" as="geometry" />
        </mxCell>
        <mxCell id="dJazrFDQEvs-Zin5iPk2-172" value="float SizePercentage" style="text;align=left;verticalAlign=top;spacingLeft=4;spacingRight=4;overflow=hidden;rotatable=0;points=[[0,0.5],[1,0.5]];portConstraint=eastwest;rounded=0;shadow=0;html=0;" vertex="1" parent="dJazrFDQEvs-Zin5iPk2-169">
          <mxGeometry y="78" width="790" height="26" as="geometry" />
        </mxCell>
        <mxCell id="dJazrFDQEvs-Zin5iPk2-184" value="List&lt;Item&gt; dropItems" style="text;align=left;verticalAlign=top;spacingLeft=4;spacingRight=4;overflow=hidden;rotatable=0;points=[[0,0.5],[1,0.5]];portConstraint=eastwest;rounded=0;shadow=0;html=0;" vertex="1" parent="dJazrFDQEvs-Zin5iPk2-169">
          <mxGeometry y="104" width="790" height="26" as="geometry" />
        </mxCell>
        <mxCell id="dJazrFDQEvs-Zin5iPk2-183" value="Item useableTool" style="text;align=left;verticalAlign=top;spacingLeft=4;spacingRight=4;overflow=hidden;rotatable=0;points=[[0,0.5],[1,0.5]];portConstraint=eastwest;rounded=0;shadow=0;html=0;" vertex="1" parent="dJazrFDQEvs-Zin5iPk2-169">
          <mxGeometry y="130" width="790" height="26" as="geometry" />
        </mxCell>
        <mxCell id="dJazrFDQEvs-Zin5iPk2-182" value="int Hardness" style="text;align=left;verticalAlign=top;spacingLeft=4;spacingRight=4;overflow=hidden;rotatable=0;points=[[0,0.5],[1,0.5]];portConstraint=eastwest;rounded=0;shadow=0;html=0;" vertex="1" parent="dJazrFDQEvs-Zin5iPk2-169">
          <mxGeometry y="156" width="790" height="26" as="geometry" />
        </mxCell>
        <mxCell id="dJazrFDQEvs-Zin5iPk2-181" value="bool Walkable" style="text;align=left;verticalAlign=top;spacingLeft=4;spacingRight=4;overflow=hidden;rotatable=0;points=[[0,0.5],[1,0.5]];portConstraint=eastwest;rounded=0;shadow=0;html=0;" vertex="1" parent="dJazrFDQEvs-Zin5iPk2-169">
          <mxGeometry y="182" width="790" height="26" as="geometry" />
        </mxCell>
        <mxCell id="dJazrFDQEvs-Zin5iPk2-191" value="int rotation" style="text;align=left;verticalAlign=top;spacingLeft=4;spacingRight=4;overflow=hidden;rotatable=0;points=[[0,0.5],[1,0.5]];portConstraint=eastwest;rounded=0;shadow=0;html=0;" vertex="1" parent="dJazrFDQEvs-Zin5iPk2-169">
          <mxGeometry y="208" width="790" height="26" as="geometry" />
        </mxCell>
        <mxCell id="dJazrFDQEvs-Zin5iPk2-190" value="int Rotation " style="text;align=left;verticalAlign=top;spacingLeft=4;spacingRight=4;overflow=hidden;rotatable=0;points=[[0,0.5],[1,0.5]];portConstraint=eastwest;rounded=0;shadow=0;html=0;" vertex="1" parent="dJazrFDQEvs-Zin5iPk2-169">
          <mxGeometry y="234" width="790" height="26" as="geometry" />
        </mxCell>
        <mxCell id="dJazrFDQEvs-Zin5iPk2-173" value="" style="line;html=1;strokeWidth=1;align=left;verticalAlign=middle;spacingTop=-1;spacingLeft=3;spacingRight=3;rotatable=0;labelPosition=right;points=[];portConstraint=eastwest;" vertex="1" parent="dJazrFDQEvs-Zin5iPk2-169">
          <mxGeometry y="260" width="790" height="8" as="geometry" />
        </mxCell>
        <mxCell id="dJazrFDQEvs-Zin5iPk2-174" value="bool IsBuildable(Terrain t)" style="text;align=left;verticalAlign=top;spacingLeft=4;spacingRight=4;overflow=hidden;rotatable=0;points=[[0,0.5],[1,0.5]];portConstraint=eastwest;rounded=0;shadow=0;html=0;" vertex="1" parent="dJazrFDQEvs-Zin5iPk2-169">
          <mxGeometry y="268" width="790" height="26" as="geometry" />
        </mxCell>
        <mxCell id="dJazrFDQEvs-Zin5iPk2-175" value="Structure(string name, int id, float size, Item useableTool, IEnumerable&lt;Item&gt; droppedItems, int Hardness, bool Walkable = false, int Rotation = 0)" style="text;align=left;verticalAlign=top;spacingLeft=4;spacingRight=4;overflow=hidden;rotatable=0;points=[[0,0.5],[1,0.5]];portConstraint=eastwest;" vertex="1" parent="dJazrFDQEvs-Zin5iPk2-169">
          <mxGeometry y="294" width="790" height="26" as="geometry" />
        </mxCell>
        <mxCell id="dJazrFDQEvs-Zin5iPk2-176" value=" Structure(string name, int id, float size, Item useableTool, Item droppedItem, int Hardness, bool Walkable = false, int Rotation = 0)" style="text;align=left;verticalAlign=top;spacingLeft=4;spacingRight=4;overflow=hidden;rotatable=0;points=[[0,0.5],[1,0.5]];portConstraint=eastwest;" vertex="1" parent="dJazrFDQEvs-Zin5iPk2-169">
          <mxGeometry y="320" width="790" height="26" as="geometry" />
        </mxCell>
        <mxCell id="dJazrFDQEvs-Zin5iPk2-177" value="Structure(StructureType type, int Rotation = 0)" style="text;align=left;verticalAlign=top;spacingLeft=4;spacingRight=4;overflow=hidden;rotatable=0;points=[[0,0.5],[1,0.5]];portConstraint=eastwest;" vertex="1" parent="dJazrFDQEvs-Zin5iPk2-169">
          <mxGeometry y="346" width="790" height="26" as="geometry" />
        </mxCell>
        <mxCell id="dJazrFDQEvs-Zin5iPk2-185" value="bool Destory(Player p)" style="text;align=left;verticalAlign=top;spacingLeft=4;spacingRight=4;overflow=hidden;rotatable=0;points=[[0,0.5],[1,0.5]];portConstraint=eastwest;rounded=0;shadow=0;html=0;" vertex="1" parent="dJazrFDQEvs-Zin5iPk2-169">
          <mxGeometry y="372" width="790" height="26" as="geometry" />
        </mxCell>
        <mxCell id="dJazrFDQEvs-Zin5iPk2-186" value="Item GetDropItem(int n)" style="text;align=left;verticalAlign=top;spacingLeft=4;spacingRight=4;overflow=hidden;rotatable=0;points=[[0,0.5],[1,0.5]];portConstraint=eastwest;rounded=0;shadow=0;html=0;" vertex="1" parent="dJazrFDQEvs-Zin5iPk2-169">
          <mxGeometry y="398" width="790" height="26" as="geometry" />
        </mxCell>
        <mxCell id="dJazrFDQEvs-Zin5iPk2-187" value="Item[] GetDropItems()" style="text;align=left;verticalAlign=top;spacingLeft=4;spacingRight=4;overflow=hidden;rotatable=0;points=[[0,0.5],[1,0.5]];portConstraint=eastwest;rounded=0;shadow=0;html=0;" vertex="1" parent="dJazrFDQEvs-Zin5iPk2-169">
          <mxGeometry y="424" width="790" height="26" as="geometry" />
        </mxCell>
        <mxCell id="dJazrFDQEvs-Zin5iPk2-188" value="Byte[] ToByte()" style="text;align=left;verticalAlign=top;spacingLeft=4;spacingRight=4;overflow=hidden;rotatable=0;points=[[0,0.5],[1,0.5]];portConstraint=eastwest;rounded=0;shadow=0;html=0;" vertex="1" parent="dJazrFDQEvs-Zin5iPk2-169">
          <mxGeometry y="450" width="790" height="26" as="geometry" />
        </mxCell>
        <mxCell id="dJazrFDQEvs-Zin5iPk2-189" value="int IsStructure(int id)" style="text;align=left;verticalAlign=top;spacingLeft=4;spacingRight=4;overflow=hidden;rotatable=0;points=[[0,0.5],[1,0.5]];portConstraint=eastwest;rounded=0;shadow=0;html=0;" vertex="1" parent="dJazrFDQEvs-Zin5iPk2-169">
          <mxGeometry y="476" width="790" height="26" as="geometry" />
        </mxCell>
        <mxCell id="dJazrFDQEvs-Zin5iPk2-180" style="edgeStyle=orthogonalEdgeStyle;rounded=0;orthogonalLoop=1;jettySize=auto;html=1;endArrow=block;endFill=0;entryX=0.089;entryY=0;entryDx=0;entryDy=0;entryPerimeter=0;" edge="1" parent="WIyWlLk6GJQsqaUBKTNV-1" source="dJazrFDQEvs-Zin5iPk2-155" target="dJazrFDQEvs-Zin5iPk2-169">
          <mxGeometry relative="1" as="geometry">
            <mxPoint x="1029.9999999999998" y="330" as="targetPoint" />
          </mxGeometry>
        </mxCell>
      </root>
    </mxGraphModel>
  </diagram>
</mxfile>
